<svg width="48" height="50" viewBox="0 0 48 50" fill="none" xmlns="http://www.w3.org/2000/svg">
<path d="M36.0656 36.2559L35.0995 35.2313L34.5872 34.6897L24.7512 24.3267L23.1997 25.7318L33.8993 37.1048L46.0188 50L47.6435 48.4485L36.0656 36.2559ZM29.8156 37.9245C29.5814 37.2365 30.2108 36.6071 30.3279 35.9338C30.4157 35.4069 30.1815 35.0703 29.8888 34.5726C29.9034 34.5433 29.918 34.514 29.918 34.4701C30.0059 34.4409 30.0791 34.4262 30.1669 34.4116C30.1961 34.4116 30.2254 34.397 30.2547 34.397C30.284 34.397 30.3132 34.3823 30.3572 34.3823L22.1897 25.7904L24.7951 23.3167L34.5141 33.5626C34.4702 32.8601 34.3384 32.1575 33.4602 31.6013C33.2992 31.5574 33.0357 31.6306 32.9479 31.6306C32.9918 31.5428 32.9918 31.4842 33.1089 31.411C33.1675 31.3378 33.226 31.3232 33.3138 31.2354C33.6798 31.0744 34.031 30.9134 34.397 30.9426C34.8654 31.0158 35.041 31.0744 35.3776 31.3671C35.6704 31.6013 35.846 31.9672 36.1095 32.1429C36.695 32.5234 37.5147 32.4795 38.0562 32.1868C38.2465 32.0843 38.3929 31.9672 38.6417 31.894C38.8905 31.8208 39.2711 31.8208 39.476 32.055C39.5053 32.0843 39.5346 32.1282 39.5492 32.1721C39.5638 32.1429 39.5638 32.1282 39.5785 32.0989C39.6077 31.9526 39.476 31.8501 39.4028 31.733C39.3735 31.6891 39.4175 31.6598 39.4028 31.6159C39.1394 31.2354 38.3343 31.5281 38.0709 31.5574C37.8513 31.572 37.5586 31.5427 37.3244 31.4549C37.1195 31.3964 36.7974 31.2354 36.5779 31.0451C36.4315 30.9133 36.373 30.7084 36.2266 30.5621C35.5679 29.8448 34.719 30.0205 34.031 30.2108C33.9579 29.9327 34.3531 29.5668 34.397 29.3618C35.0117 29.2008 35.7143 29.435 36.2851 29.9619C36.6072 30.2547 36.7974 30.7231 37.1926 31.0305C38.0416 31.7038 39.1247 30.606 39.6516 31.6306C39.798 31.3378 39.6078 31.0597 39.4614 30.8548C38.9784 30.24 38.6856 30.4157 38.144 30.3279C37.8367 30.2839 37.5147 30.1376 37.2951 29.9766C36.7828 29.5667 36.7682 28.952 36.4022 28.469C35.9924 27.9128 35.2166 27.7078 34.7483 28.0299C34.8653 27.0931 35.7436 26.4344 36.5925 26.5076C37.1926 26.5515 37.7196 27.1077 38.349 27.0053C38.4807 26.9906 38.5832 26.9614 38.7003 26.9175C39.4467 26.654 39.7688 25.9953 40.486 25.6587C40.5006 25.644 40.5152 25.644 40.5445 25.644C40.5445 25.644 40.5445 25.644 40.5592 25.644C40.5592 25.644 40.5592 25.644 40.5738 25.644C40.8665 25.5269 40.9982 25.5709 41.2032 25.6587C40.5152 24.7365 40.0176 25.322 39.5638 25.6733C39.0808 26.0392 38.5392 26.0685 38.0709 25.8928C37.8074 25.7904 37.6171 25.5562 37.3097 25.3806C37.1194 25.2781 36.7828 25.2488 36.5779 25.2635C36.1095 25.2927 35.685 25.6879 35.2313 25.7611C35.4069 25.483 35.0995 25.2196 35.3484 24.9854C35.4362 24.9122 35.5679 24.9268 35.6411 24.8975C35.7582 24.8536 35.846 24.7512 35.9631 24.7073C36.534 24.5023 37.1341 24.7512 37.7488 25.1317C37.9684 25.2635 38.1148 25.4538 38.3782 25.5416C38.9344 25.7465 39.5346 25.5416 39.8858 25.0878C40.3689 24.6926 40.6616 24.839 41.0422 25.2342C40.7787 24.2681 39.4614 23.7851 38.7442 24.3852C38.4953 24.3267 38.1441 24.6341 37.8367 24.4877C37.3976 24.2682 37.2219 23.5802 36.8413 23.2728C36.7682 23.2143 36.695 23.1704 36.6218 23.1265C36.5925 23.1118 36.5632 23.0972 36.5486 23.0825C36.4901 23.0533 36.4462 23.0386 36.3876 23.0094C36.3583 22.9947 36.3291 22.9801 36.2851 22.9801C36.2412 22.9655 36.1827 22.9508 36.1388 22.9362C36.1095 22.9216 36.0656 22.9215 36.0363 22.9215C35.9778 22.9215 35.9339 22.9069 35.8753 22.9069C35.846 22.9069 35.8168 22.9069 35.7875 22.9069C35.7143 22.9069 35.6558 22.9216 35.5972 22.9362C35.5679 22.9508 35.524 22.9508 35.4947 22.9654C35.4508 22.9801 35.4069 22.9947 35.363 23.024C35.3337 23.0386 35.3045 23.0679 35.2752 23.0825C35.1581 23.1704 35.0703 23.2728 34.9971 23.4046C34.9678 23.2582 34.8946 23.4046 34.8214 23.346C34.9971 23.0972 35.0556 22.8337 35.0995 22.5849C35.3191 22.2482 35.5533 22.0726 35.8753 21.8091C36.007 21.7799 36.1388 21.7213 36.2705 21.6188C36.8121 21.4725 37.3829 21.6628 37.8806 21.4871C38.0562 21.4286 38.3636 21.2822 38.5392 21.1212C39.154 20.5796 39.0369 19.6429 39.6956 19.1598C39.798 19.0867 40.0029 19.1013 40.0029 18.9842C39.9883 18.9403 39.9005 18.9696 39.9005 18.9549C39.9005 18.7354 39.3443 18.8232 39.0369 19.1159C38.993 19.1598 38.9491 19.2037 38.9198 19.2623C38.7149 19.5989 38.5831 19.8331 38.2758 20.0966C37.6756 20.6382 37.2219 20.4186 36.6657 20.3893C36.1827 20.3601 35.7582 20.5357 35.3337 20.5796C35.0703 20.7992 34.8214 21.1212 34.6019 21.2822C34.5287 21.048 34.558 20.7845 34.3677 20.5796C34.8507 20.0673 35.4362 19.8331 36.0363 19.8039C36.7243 19.7746 37.5 20.2722 38.144 19.8624C38.5978 19.5697 38.8173 18.8671 39.3589 18.6622C39.4906 18.6183 39.6224 18.6768 39.7834 18.5743C39.2564 18.1352 38.4514 17.9157 37.9098 18.3109C37.6756 18.4865 37.6318 18.6475 37.3976 18.8378C36.4754 19.5697 35.7728 18.7061 34.8068 18.6329C34.3238 18.6475 33.8408 18.9842 33.3577 19.2769C33.4748 19.1891 33.4163 19.1452 33.3285 19.0427C33.4016 18.5744 33.3577 18.1206 33.5627 17.6961C33.9871 16.8472 34.7336 16.935 35.3337 16.6276C36.0509 16.2617 36.1973 15.6177 36.3144 14.8858C36.2998 14.3296 35.8607 13.6709 36.534 13.2026C35.3776 13.2465 35.7728 14.4321 35.4362 15.1347C35.0995 15.8226 34.397 15.969 33.7383 16.13C33.2699 16.3349 32.7723 16.6276 32.5381 17.1106C32.4649 17.257 32.582 17.4473 32.4063 17.5498C32.1721 17.2424 31.8501 17.2424 31.7916 16.935C32.1282 16.5105 32.4795 16.0714 32.8894 15.8519C33.2553 15.6616 33.6358 15.6909 34.0018 15.603C34.2945 15.5445 34.88 15.281 35.0849 15.0322C35.5972 14.4467 34.9824 13.7149 35.9485 13.0855C35.6411 12.983 35.0995 13.1587 34.8068 13.4807C34.6312 13.671 34.5872 13.9783 34.397 14.1832C33.6798 14.9297 32.5088 14.3004 31.6891 15.0029C31.4988 15.1786 31.1915 15.5152 31.089 15.8372C31.0305 16.0129 31.1183 16.1007 31.0597 16.3788C30.8548 16.291 30.6499 16.1592 30.4742 15.969C30.1522 15.6469 30.0937 15.4128 30.0059 15.0615C29.9766 14.5638 29.962 13.993 30.3279 13.4807C30.7084 12.9537 31.2207 12.5146 31.3817 11.9438C31.4549 11.4022 31.3086 11.007 31.0744 10.2166C31.0744 9.98243 30.9426 9.87997 31.0012 9.68969C31.0158 9.58723 31.0012 9.47014 31.0305 9.35305C30.4596 9.74825 30.4889 10.3191 30.5474 10.7582C30.5914 11.1973 30.6353 11.5339 30.4303 11.9438C30.1376 12.5439 29.4936 12.6756 29.1862 13.2758C28.9813 13.671 28.9813 14.1101 28.8788 14.5784C28.952 14.6809 28.9959 14.798 28.952 14.9005C28.7032 14.8566 28.3226 14.8565 28.1909 14.6224C28.0591 14.4028 28.308 14.1101 28.1909 13.8905C28.4104 13.3489 28.7032 12.8659 29.2447 12.4268C29.5521 12.178 29.918 12.0316 30.1522 11.7096C30.4303 11.3437 30.2401 10.9046 30.2254 10.4362C30.2108 9.95315 30.4743 9.60187 30.7377 9.25058C30.2986 9.35304 29.7863 9.66042 29.5668 10.1288C29.3472 10.5972 29.6107 11.2119 29.1862 11.651C28.8349 12.017 28.3958 12.017 28.0445 12.1926C27.3566 12.5439 26.9467 12.8659 26.5954 13.5685C26.5954 13.8027 26.7418 14.0369 26.6393 14.2711C26.5223 14.0515 26.2442 13.993 26.0978 13.8173C25.7611 13.4368 25.5562 12.9098 25.5562 12.5585C25.5562 11.9438 25.9368 11.3144 25.9953 10.7436C25.9075 10.3044 25.8929 9.93851 25.5562 9.4994C25.322 9.20666 24.9561 9.04566 24.7365 8.76755C24.4438 8.38699 24.5902 8.10888 24.5902 7.7576L24.3706 7.97716C24.2974 8.1089 24.2828 8.1528 24.2682 8.31381C24.195 8.79683 24.5316 9.14812 24.7365 9.57259C24.9854 10.0995 24.9415 10.685 24.7219 11.1827C24.6341 11.3583 24.4877 11.49 24.356 11.7242C23.9901 12.3536 24.2974 13.1148 24.6194 13.7149C24.3853 13.7149 24.1511 13.7588 23.9169 13.8027C23.8583 13.671 23.8437 13.5392 23.7705 13.4075C23.7266 13.4221 23.7412 13.5392 23.668 13.51C23.5656 12.9098 23.5656 12.2804 23.8583 11.6657C24.0632 11.2266 24.4145 10.9046 24.4877 10.4508C24.5316 10.2313 24.4584 10.0556 24.5023 9.82142C24.1218 9.20667 23.9315 8.60654 24.1364 8.00642C23.4924 8.48944 23.1557 9.32376 23.3168 9.90924C23.3607 10.0995 23.507 10.2166 23.5217 10.3776C23.6534 11.2266 22.7605 11.8267 22.3507 12.7342C22.3361 13.0855 22.3653 13.5246 22.6142 13.8759C22.6727 13.9637 22.863 14.0223 22.8045 14.154C22.7313 14.2564 22.6581 14.1101 22.5849 14.0515C21.8677 14.1686 21.2383 13.788 20.8577 13.2904C20.1259 12.3536 20.887 11.1973 20.243 10.3191C19.5843 9.42622 18.8086 9.6897 18.0035 9.19204C18.2084 9.90925 19.1306 10.1581 19.4526 10.7582C19.6721 11.1534 19.6429 11.5925 19.599 11.9731C19.5843 12.1633 19.4965 12.3683 19.4819 12.5878C19.4526 13.0269 19.8185 13.8759 20.1991 14.0808C20.1991 14.2418 20.3454 14.3735 20.4625 14.4467C20.2137 14.4906 19.9649 14.5785 19.7161 14.6809C19.4819 14.6224 19.4526 14.3882 19.394 14.2564C19.0427 13.6124 18.911 13.0562 18.9988 12.4561C19.072 12.017 19.2916 11.5486 19.2184 11.1388C19.072 10.4508 18.2084 10.2898 17.8718 9.67506C17.7986 9.54333 17.8279 9.36767 17.7108 9.20667C17.5498 9.4555 17.4034 9.64578 17.3595 9.8507C17.1838 10.7289 18.6036 11.4461 18.1938 12.3097C17.6522 13.1001 17.4327 14.0662 17.9742 14.798C18.1938 15.0908 18.4426 15.0908 18.7207 15.2518C18.5158 15.5591 18.2524 15.5591 18.0035 15.5884C17.5937 15.6323 17.0668 15.5152 16.7447 15.2371C16.2178 14.7687 16.1593 14.2564 15.8519 13.7588C15.4713 13.1733 14.9298 12.9098 14.3443 12.7488C13.7588 12.7927 13.1733 13.1294 12.6025 12.7927C12.5293 12.7488 12.4561 12.7049 12.3829 12.6317C12.3536 12.983 12.5878 13.144 12.8513 13.2465C12.9391 13.2757 13.0269 13.305 13.1001 13.3343C13.5831 13.51 14.2272 13.6124 14.6077 13.993C15.0761 14.4467 15.1932 15.2225 15.6177 15.7494C15.9982 16.2178 16.4081 16.3642 16.9789 16.5837C16.8033 16.7447 16.5398 16.9204 16.2471 17.1546C15.6762 16.7594 15.3249 16.4813 15.0615 16.0714C14.6663 15.442 14.7541 14.6663 14.2418 14.1832C13.832 13.8027 13.51 13.8759 13.1294 13.7002C13.1001 13.6856 13.0709 13.6709 13.0269 13.6563C12.6903 13.4807 12.2365 13.1733 12.1487 12.7195L12.1048 12.7635C12.0755 13.0855 12.017 13.4221 12.0609 13.7588C12.1048 14.0369 12.2365 14.3003 12.5732 14.5345C12.8074 14.6955 13.2026 14.6955 13.466 14.8566C13.5978 14.9444 13.7441 15.0908 13.832 15.2079C14.4614 15.9982 13.8466 17.0082 14.2857 17.7986C14.5492 18.2816 14.959 18.3987 15.2518 18.5743C14.6224 19.072 13.5978 19.1598 13.0123 18.5304C12.7927 18.2962 12.7049 17.9889 12.5146 17.7986C12.0609 17.3448 11.3437 17.2863 10.8607 17.4034C10.1142 17.579 9.39696 18.267 8.69439 18.0621C9.07495 18.75 9.66042 18.4573 10.1727 18.3548C10.6118 18.267 11.1973 18.1938 11.5779 18.4865C12.1487 18.9403 12.339 19.6575 13.0708 20.0088C13.3636 20.0966 13.7734 20.0527 14.0076 20.1259C13.9344 20.3454 13.7881 20.5503 13.8173 20.7699C13.7734 20.7553 13.7002 20.7845 13.7002 20.8431C13.1001 20.5503 12.5293 20.4186 12.0316 19.9063C11.695 19.555 11.5486 18.9842 11.0363 18.6036C10.6265 18.3109 10.2605 18.6622 9.86534 18.7061C9.42623 18.7646 8.8993 18.6622 8.53338 18.2377C8.56265 18.6914 8.78221 19.072 9.06031 19.3648C9.48478 19.8039 9.93852 19.6282 10.4362 19.8039C11.3583 20.1112 11.5486 20.9016 11.8999 21.5896C12.178 22.1458 12.6317 22.3507 13.0855 22.3214C13.144 22.2922 13.1294 22.2775 13.1879 22.1897C13.2026 22.2629 13.144 22.3068 13.2611 22.3507C13.0562 22.5556 13.0855 22.7459 12.9537 22.9215C12.6317 23.3167 12.017 23.4338 11.5925 23.3607C10.9778 23.2582 10.4508 22.5995 9.86534 22.6434C9.67506 22.8776 9.44087 22.7459 9.22132 22.8191C8.35774 23.1265 8.02108 24.5755 7.05504 24.4438C7.53806 24.8536 8.03572 24.3413 8.51874 24.0632C9.33841 23.5948 10.1727 23.5802 10.9924 24.4584C11.2705 24.517 11.5047 24.6048 11.7682 24.6194C12.2073 24.6341 12.5732 24.3853 13.0269 24.3121C12.9977 24.5609 13.0269 24.8097 12.8952 25.0585C12.5439 25.1025 12.2365 25.3074 11.9145 25.2927C11.373 25.2635 10.8021 25.0146 10.4069 24.678C10.0703 24.3999 9.82143 24.1218 9.51406 24.0632C8.92857 23.9461 8.31382 24.8244 7.66979 24.8536C7.47951 24.8683 7.39169 24.7804 7.1575 24.7951C7.3185 25.2781 7.93326 25.5123 8.38701 25.644C8.76757 25.805 9.61651 25.2196 10.3484 25.7758C10.7582 26.0831 11.1241 26.5662 11.5047 26.815C11.9731 27.1224 12.8952 26.9467 13.1587 26.4344C13.2319 26.5515 13.0855 26.654 13.1294 26.7711C13.1733 26.6979 13.1879 26.6686 13.2758 26.7564C13.2026 27.0638 13.2319 27.3127 12.983 27.5761C12.2512 28.3665 11.3437 28.0299 10.6265 28.2348C10.2605 28.3372 9.76288 28.6007 9.49941 28.9666C9.23595 29.3326 9.1774 29.8009 8.88466 30.1669C8.66511 30.445 8.41628 30.6352 8.02108 30.8402C8.75294 31.7477 9.26522 30.3864 10.0263 29.8595C10.5533 29.5082 10.9778 29.596 11.4022 29.5228C12.017 29.8156 12.7049 29.4643 13.2904 28.7324C13.3636 28.6592 13.3343 28.469 13.4807 28.5129C13.6417 28.6739 13.5978 29.0544 13.7588 29.2155C13.4953 29.4936 13.2318 29.7717 12.9391 29.9034C12.6025 30.0644 11.8706 30.0937 11.5486 30.0644C11.2266 30.0351 10.8899 29.8302 10.6265 29.8595C10.1142 29.9327 9.86535 30.5767 9.47015 30.9573C9.10422 31.3232 8.75293 31.2939 8.31382 31.3232C9.20668 32.1136 10.1142 31.9526 11.0363 31.1329C11.1095 31.0744 11.168 31.0451 11.2266 31.0012C11.3876 30.8987 11.4901 30.8987 11.6803 30.8694C12.2219 30.7377 12.7049 31.1622 13.2172 31.2646C13.7734 31.3817 14.2272 31.1914 14.7541 30.6938C14.9737 31.3524 14.8858 32.0404 14.3296 32.5234C13.832 32.9479 13.1148 32.9772 12.661 33.4895C11.8706 34.3677 12.7342 35.8314 11.7242 36.5486C12.9245 36.3876 12.339 34.7775 13.4368 34.1481C13.5685 34.0749 13.671 34.1335 13.7588 34.1189C13.9052 34.0896 14.5345 33.87 14.7248 33.7529C15.1493 33.4895 15.281 33.0796 15.4274 32.8162C15.5738 32.5527 15.647 32.4502 15.7055 32.2014C15.9397 32.3624 16.0129 32.5673 16.2471 32.7284C16.1153 33.3285 15.3835 34.075 14.8127 34.2799C14.3296 34.4555 13.7295 34.4702 13.3636 34.7629C12.9537 35.0995 13.0416 35.7143 12.7342 36.1388C12.4707 36.49 12.1194 36.6218 11.7389 36.8121C12.2073 36.9145 12.6757 36.9877 13.1294 36.6511C13.5831 36.329 13.7149 35.8021 14.2125 35.4655C14.7541 35.0995 15.4567 35.1874 16.0275 35.1727C16.5105 35.1581 17.096 34.7336 17.3595 34.2506C17.4034 34.1042 17.3449 33.9578 17.3741 33.8115C17.5059 33.7822 17.5351 33.9725 17.623 34.075C17.8718 34.397 17.9157 34.6604 18.0035 34.9239C18.0035 35.9192 16.7008 36.7681 16.7155 37.7635C16.7301 38.5246 17.3009 39.3004 17.3156 40.0615C17.3449 40.2225 17.2863 40.3249 17.1692 40.4713C18.0621 40.1054 17.3741 39.3735 17.3595 38.7441C17.3449 38.3782 17.4473 37.8513 17.8132 37.4707C18.0474 37.2365 18.3548 37.1634 18.6183 36.9731C19.2623 36.5193 19.3209 35.9631 19.2916 35.2459C19.3209 35.1873 19.1598 35.1288 19.2038 35.0703C19.4672 35.1874 19.7014 35.2166 19.9942 35.363C19.8332 35.9924 19.8039 36.6218 19.1306 37.1048C18.7061 37.4122 17.9889 37.5585 17.6961 38.0855C17.3009 38.8173 18.4573 39.6224 17.5791 40.3688C17.8864 40.281 18.4865 39.7541 18.6475 39.4614C18.8817 39.0515 18.8378 38.466 19.1598 38.0855C19.4379 37.7342 19.9502 37.6317 20.1844 37.5C20.6089 37.2658 20.9016 36.8706 21.2237 36.4315C21.3115 36.1534 21.2237 35.8607 21.3408 35.5826C21.4139 35.6557 21.3554 35.7143 21.4139 35.7875C21.6774 35.7728 21.9701 36.0802 22.1751 36.2705C22.2043 36.2998 22.219 36.329 22.2482 36.3583C22.38 36.5193 22.4678 36.5925 22.4678 37.1487C22.38 38.1001 21.6774 39.0662 22.2043 40.0029C22.2922 40.1786 22.4971 40.4274 22.702 40.6177C22.9216 40.7933 23.1704 40.8811 23.346 41.13C23.507 41.3642 23.507 41.6423 23.6827 41.8911C24.4292 41.3056 23.7705 40.8958 23.4192 40.3103C23.0972 39.7687 23.0679 39.1979 23.2143 38.7588C23.346 38.349 23.6973 38.0269 23.8144 37.6025C23.9461 37.0902 23.7998 36.6071 23.5363 36.0802C23.7851 36.0509 24.0193 36.1534 24.2682 36.1241C24.3706 36.373 24.5316 36.6364 24.5463 36.8999C24.5755 37.5732 24.195 38.1294 23.7851 38.7881C23.5949 39.0954 23.4485 39.5492 23.4778 39.8858C23.5509 40.5738 24.4877 41.0422 24.1803 41.774C24.5463 41.3495 24.8244 40.8519 24.8244 40.3835C24.839 40.0615 24.678 39.798 24.6634 39.5199C24.6634 39.3736 24.6926 39.1833 24.7365 39.0222C24.9268 38.4368 25.644 38.0416 25.8929 37.4268C26.01 37.1487 25.9661 36.9145 26.0392 36.5925C25.9953 36.2998 25.6587 36.0802 25.644 35.8021C25.849 36.007 26.1271 35.8899 26.3759 35.9631C26.6979 36.0509 27.0492 36.3144 27.2541 36.6803C27.4444 37.017 27.3712 37.3975 27.4005 37.822C27.4298 38.2319 27.5908 38.7442 27.8689 39.0808C28.1616 39.4467 28.4836 39.5053 28.8934 39.8127C29.2301 40.0468 29.6839 40.5738 29.918 41.0129C30.4157 39.5199 29.2301 39.476 28.8349 38.832C28.7032 38.6271 28.6153 38.3343 28.5714 38.144C28.5275 37.9391 28.6153 37.7342 28.5714 37.4854C28.7324 37.0609 28.7617 36.5925 28.63 36.1534C28.5275 35.8314 28.1909 35.5972 28.1177 35.2459C28.308 35.1873 28.6153 35.1874 28.6446 34.9824C28.6885 35.0995 28.8642 35.0703 28.952 35.1434C29.1569 35.3337 29.1276 35.6411 29.1569 35.846C29.2155 36.373 29.3033 36.8999 29.2155 37.3829C29.1276 37.8806 28.8495 38.51 29.2594 39.0076C29.4204 39.1979 29.6546 39.2711 29.8009 39.4174C30.1961 39.8126 30.2401 40.2078 30.2693 40.7641C30.7524 40.4274 30.7963 39.9005 30.7524 39.5199C30.5621 38.9784 30.0059 38.5099 29.8156 37.9245ZM13.1001 12.0902C12.8074 11.7974 12.4268 11.4315 12.0316 11.0363C11.9292 11.3583 11.9877 11.7535 12.178 11.9584C12.339 12.1341 12.7635 12.2073 13.1001 12.0902ZM7.96254 9.27986L11.0656 12.7488C11.2266 12.1633 11.2559 11.2998 11.7096 10.7289C10.4655 9.4994 9.08958 8.15279 9.07494 8.16743C9.03103 8.1967 10.2166 7.15748 10.2898 6.82083C10.3337 6.55736 10.4069 6.2939 9.19204 5.59133C7.96253 4.88875 0 0 0 0L5.15222 9.20667C5.15222 9.20667 5.45961 9.87998 5.76698 10.1288C6.04509 10.363 6.48419 10.5972 7.09895 10.041C7.50878 9.70434 7.96254 9.27986 7.96254 9.27986Z" fill="#AD011B"/>
</svg>
