<svg width="44" height="33" viewBox="0 0 44 33" fill="none" xmlns="http://www.w3.org/2000/svg">
<path d="M31.52 10.7336C31.48 10.7336 31.45 10.7336 31.42 10.7336C31.54 10.9036 31.78 11.2336 32.04 11.1936C32.09 11.1836 32.13 11.1536 32.17 11.1036C32.17 11.0836 32.17 11.0536 32.17 11.0336C32.22 10.8436 32.23 10.6536 32.19 10.5036C32.01 10.6336 31.79 10.7136 31.52 10.7336ZM25.14 12.6536C24.95 12.8036 24.57 12.7736 24.31 12.8436C24.23 12.8636 24.17 12.9336 24.1 12.9436C23.85 13.0036 23.6 12.9436 23.39 12.9836C23.23 13.0136 23 13.1436 22.8 13.2436C22.33 13.4836 21.81 13.7836 21.64 14.3136C21.42 14.9836 21.7 15.9636 21.38 16.7836C22.1 16.2636 23.24 16.5136 24.05 16.1536C24.48 15.9636 24.77 15.6936 25.09 15.4036C25.29 14.4836 24.84 13.5436 25.16 12.6736C25.16 12.6636 25.16 12.6536 25.14 12.6536ZM33.72 12.0036C33.76 11.8736 33.76 11.7336 33.72 11.6036C33.67 11.4536 33.6 11.3236 33.51 11.2036C33.48 11.2236 33.45 11.2336 33.42 11.2536C33.23 11.4036 32.97 11.4936 32.64 11.5236C32.82 11.8436 33.27 12.0336 33.72 12.0036ZM5.97 10.7736C6.8 10.9736 7.78 11.0036 8.63 10.8636C8.84 10.2536 8.93 9.4936 9.25 8.9636C9.25 8.9436 9.25 8.9236 9.23 8.9236C7.9 9.5336 6.49 10.0536 4.84 10.2936C5.18 10.4836 5.54 10.6536 5.95 10.7736C5.96 10.7636 5.97 10.7736 5.97 10.7736ZM2.08 13.1336C3 13.5136 3.98 13.7636 5.15 13.8236C5.54 13.0236 5.98 12.2136 6.6 11.6936C6.66 11.6436 6.76 11.5936 6.85 11.5336C6.92 11.4836 7.06 11.3836 7.02 11.3536C6.33 11.7136 5.51 11.8136 4.83 12.1236C4.74 12.1636 4.64 12.1836 4.54 12.2236C4.53 12.2236 4.52 12.2336 4.51 12.2436C4.42 12.2836 4.35 12.3736 4.26 12.4136C3.73 12.6436 3.18 12.7936 2.59 12.8636C2.4 12.8836 2.19 12.9536 2.01 13.0236C2.08 13.0236 2.13 13.0336 2.16 13.0736C2.09 13.0436 2.09 13.0836 2.08 13.1336ZM19.02 7.0836C18.98 7.1136 18.88 7.1736 18.96 7.2336C18.97 7.1836 19.07 7.1336 19.02 7.0836ZM42.07 6.1536C41.76 5.6136 41.18 5.1836 40.59 4.8136C40.43 4.7136 40.24 4.5936 40.1 4.5436C39.62 4.3836 39.05 4.3936 38.56 4.3936C37.8 4.3936 37.06 4.5736 36.36 4.6136C36.44 4.4436 36.71 4.4136 36.89 4.3536C37.48 4.1436 38.36 3.9236 39.06 3.9436C39.94 3.9636 40.75 4.4336 41.3 4.9036C41.39 4.9836 41.51 5.0436 41.57 5.1036C41.74 5.2736 41.85 5.5536 42.01 5.7336C42.06 5.7836 42.13 5.8036 42.17 5.8536C42.26 5.9736 42.27 6.1536 42.37 6.2636C42.19 6.2636 42.26 6.0636 42.07 6.1536ZM40.89 7.6136C39.88 7.6136 39.29 7.1236 38.74 6.6736C38.61 6.5636 38.46 6.4736 38.33 6.3636C38.07 6.1636 37.79 5.8936 37.5 5.7536C37.15 5.5836 36.7 5.4936 36.31 5.4336C35.64 5.3336 34.99 5.5736 34.33 5.6236C34.38 5.4636 34.59 5.4336 34.73 5.3736C35.33 5.1436 36.22 4.8136 37.12 5.0536C37.4 5.1236 37.75 5.2936 38.03 5.4336C38.46 5.6536 38.75 5.9336 39.13 6.2636C39.47 6.5636 39.67 6.8536 40.04 7.1236C40.15 7.2036 40.29 7.3036 40.38 7.3336C40.91 7.5036 41.38 7.2436 41.81 7.3036C41.64 7.5336 41.25 7.6136 40.89 7.6136ZM30.02 11.6336C30.25 11.7136 30.32 11.9436 30.43 12.1236C31.35 12.5136 32.22 12.9836 33.2 13.3536C33.68 13.5336 34.15 13.7236 34.59 13.9736C35.17 14.3036 35.62 14.7536 36.39 14.7836C36.48 14.7836 36.63 14.6936 36.68 14.8336C36.62 14.9836 36.42 14.9236 36.28 14.9436C36.14 14.9636 35.98 15.0436 35.85 15.0236C35.7 15.0036 35.29 14.7236 35.13 14.6236C34.62 14.3336 34.17 14.1836 33.62 13.9036C33.38 13.7836 33.15 13.6436 32.91 13.5236C32.39 13.2736 31.79 13.2436 31.34 12.9136C30.94 12.8236 30.65 12.6336 30.28 12.5236C30.22 12.4036 30.3 12.3336 30.27 12.2336C30.22 12.0236 29.9 11.9436 30.02 11.6336ZM26.85 7.8236C26.67 7.7236 26.37 7.6436 26.04 7.6536C25.25 7.6736 24.48 8.1836 23.69 8.3236C22.9 8.4536 22.14 8.1936 21.59 7.9236C20.89 7.5736 20.34 7.0636 19.76 6.5836C19.61 6.4636 19.48 6.3336 19.33 6.2236C19.11 6.0536 18.85 5.9636 18.68 5.7336C18.3 5.4236 17.27 5.3236 17.11 4.7836C17.07 4.6436 17.11 4.4936 17.04 4.3436C17.17 3.7436 17.83 3.7936 18.5 3.6936C19.07 3.6036 19.56 3.4736 19.92 3.1736C19.74 2.9736 19.42 2.9136 19.33 2.6336C20.63 2.9536 21.66 1.9636 22.82 1.8136C23.26 1.7536 23.57 1.9136 23.94 2.0336C23.84 1.6836 23.95 1.2036 24.32 1.1436C24.46 1.2136 24.28 1.3336 24.3 1.5036C24.32 1.6636 24.66 1.8736 24.83 2.0036C25.23 2.2936 25.49 2.4736 25.82 2.8336C25.96 2.9836 26.13 3.1136 26.21 3.2336C26.32 3.3936 26.38 3.6036 26.47 3.7336C26.55 3.8736 26.72 3.9536 26.77 4.1236C26.59 4.1236 26.48 3.9536 26.37 3.8636C26.06 3.5636 25.79 3.1736 25.43 2.8836C24.5 2.1436 22.72 2.2136 21.76 2.7436C21.41 2.9336 21.03 3.1936 20.65 3.4136C20.53 3.4836 20.42 3.5836 20.31 3.6436C19.52 4.0736 18.4 4.1736 17.42 4.3636C17.23 4.4836 17.27 4.7736 17.43 4.8936C18.42 5.0836 19.14 5.4936 19.8 5.9936C20.06 6.1936 20.28 6.3836 20.53 6.5936C20.98 6.9536 21.46 7.3836 22.08 7.6136C23.11 8.0036 24.36 7.5436 25.25 7.3236C25.5 7.2636 25.92 7.1736 26.28 7.2536C26.4 7.2836 26.6 7.4036 26.71 7.4836C26.83 7.5636 26.97 7.7036 27.1 7.8036C27.23 7.9036 27.4 8.0436 27.38 8.1936C27.12 8.1836 27.04 7.9236 26.85 7.8236ZM26.13 8.8336C25.96 9.1036 25.41 9.3936 24.95 9.4236C24.7 9.4336 24.35 9.4336 24.21 9.2136C24.24 9.1236 24.31 9.1936 24.4 9.1836C24.47 9.1836 24.46 9.0936 24.54 9.0936C24.63 9.0836 24.74 9.0936 24.84 9.0736C25.22 8.9836 25.71 8.5136 25.81 8.1736C25.85 8.0536 25.81 7.9136 25.92 7.8136C26.17 8.0436 26.36 8.4636 26.13 8.8336ZM20.76 6.0336C20.47 6.0036 20.38 5.4636 20.64 5.4036C20.92 5.3336 21.09 5.6336 21.29 5.7136C21.36 5.6936 21.35 5.5836 21.41 5.5436C22.2 5.1436 23.06 5.8536 23.44 6.2836C24.13 6.0936 24.94 5.7036 25.84 5.8536C26.15 5.9036 26.44 6.0336 26.68 6.1736C26.9 6.3136 27.19 6.4636 27.27 6.7336C26.82 6.6236 26.52 6.2836 26.01 6.2336C24.99 6.1336 24.02 6.5636 23.27 6.8436C22.94 6.5436 22.48 5.7536 21.85 5.7936C21.63 5.8036 21.59 6.0436 21.59 6.2936C21.47 6.3136 21.45 6.1636 21.37 6.0936C21.22 5.9536 21 5.8336 20.77 5.8236C20.68 5.8836 20.87 5.9636 20.76 6.0336ZM27.04 4.0336C27.16 4.0436 27.12 4.2036 27.2 4.2536C28.2 4.0336 29.51 4.4436 29.73 5.3436C29.88 5.9636 29.39 6.4336 28.72 6.3436C28.71 6.2936 28.69 6.2436 28.67 6.1936C29.22 5.9936 28.86 5.0236 28.55 4.7436C28.21 4.4336 27.73 4.3836 27.3 4.4036C27.4 4.5736 27.51 4.7736 27.71 4.9136C27.93 5.0836 28.34 5.0636 28.39 5.3836C28.17 5.4336 28.01 5.2536 27.84 5.2036C27.62 5.1436 27.36 5.1336 27.15 5.1336C26.7 5.1236 26.22 5.0836 25.86 4.8436C25.56 4.6436 25.47 4.3136 25.03 4.2936C25.1 4.6836 25.36 4.8836 25.49 5.2036C25.24 5.1136 25.07 4.8736 24.8 4.7536C24.29 4.5236 23.65 4.4836 23.23 4.1436C23.32 4.5836 23.72 4.7236 23.93 5.0536C23.8 5.0736 23.72 4.9436 23.6 4.8836C23.16 4.6536 22.53 4.5036 21.96 4.5936C22.17 4.7636 22.55 4.7636 22.67 5.0036C22.45 4.9936 22.17 4.8836 21.91 4.8736C21.52 4.8636 21.08 5.0236 20.7 4.9536C20.51 4.9136 20.26 4.8136 20.12 4.7136C20.01 4.6436 19.83 4.4936 19.86 4.3236C20.2 4.5736 20.71 4.6136 21.21 4.5436C21.13 4.3036 20.81 4.0436 20.86 3.6936C20.99 3.7136 21 3.8436 21.07 3.9136C21.51 4.1836 22.2 4.2236 22.78 4.3536C22.62 4.0736 22.61 3.4636 22.92 3.2436C23.21 3.8436 23.86 4.1236 24.62 4.2936C24.61 3.7736 24.83 3.5236 25.04 3.2536C25.06 3.2536 25.08 3.2536 25.1 3.2536C25.26 3.6236 25.52 3.9836 25.83 4.2736C26.17 4.5836 26.68 4.7536 27.33 4.7836C27.26 4.5336 26.93 4.3436 27.04 4.0336ZM42.27 3.5036C42.31 3.8336 42.58 3.9536 42.76 4.1536C42.96 3.9836 43.56 3.9236 43.7 4.2136C43.54 4.2536 43.14 4.2836 43.2 4.5536C43.23 4.6736 43.41 4.6036 43.45 4.7536C43.33 4.9236 43.02 4.8836 42.84 4.9936C42.67 4.7536 42.5 4.5436 42.31 4.3436C42.01 4.0236 41.64 3.8136 41.23 3.6136C40.79 3.4036 40.33 3.2236 39.77 3.1436C39.21 3.0636 38.59 3.1336 38.07 3.2136C37.77 3.2636 37.45 3.2736 37.21 3.3436C36.94 3.4136 36.69 3.5536 36.43 3.6436C35.86 3.8536 35.41 3.9736 34.92 4.2536C34.45 4.5236 34.04 4.7736 33.65 5.0836C33.5 5.2136 33.32 5.2936 33.19 5.4036C33.16 5.4236 33.08 5.4736 33.11 5.5336C33.34 5.5436 33.64 5.3236 33.76 5.5636C33.63 5.6736 33.42 5.6136 33.27 5.6336C32.76 5.7136 32.24 5.9736 31.81 6.1936C31.37 6.4236 30.97 6.7236 30.55 6.9836C30.12 7.2536 29.73 7.5736 29.36 7.8736C29.28 8.0736 29.11 8.1336 28.99 8.2736C28.66 8.6536 28.36 9.1636 28.2 9.6736C28.13 9.9136 28.12 10.1936 28.03 10.4836C28 10.5836 27.9 10.7436 27.83 10.8736C27.76 10.9936 27.67 11.2036 27.54 11.1036C27.8 10.6936 27.98 10.2036 28.06 9.5736C28.13 8.9236 28.43 8.4736 28.74 8.0536C29.04 7.6536 29.32 7.3236 29.68 7.0336C30.05 6.7436 30.45 6.5336 30.86 6.3136C31.06 6.2036 31.29 6.0936 31.51 6.0036C31.93 5.8236 32.32 5.7336 32.53 5.3536C31.66 5.2936 31.27 4.8336 30.71 4.4136C30.3 4.1036 29.88 3.7436 29.35 3.6436C29.07 3.5936 28.72 3.6936 28.4 3.6336C28.37 3.5336 28.51 3.5636 28.55 3.5436C28.75 3.4736 28.97 3.4036 29.21 3.3636C30.09 3.2336 30.91 3.0836 31.77 2.9736C31.96 2.9536 32.15 2.8836 32.31 2.8836C32.68 2.8936 33.01 2.7636 33.39 2.7236C33.74 2.6836 34.11 2.7336 34.44 2.6236C34.56 2.2836 34.39 2.0136 34.21 1.8536C34.04 1.6936 33.76 1.5736 33.5 1.5336C32.57 1.3936 31.5 1.8136 30.75 2.0336C30.32 2.1536 29.94 2.3836 29.49 2.2936C29.35 2.2636 29.11 2.1736 29.11 2.0436C29.28 2.0336 29.52 2.1536 29.68 2.1236C30.23 2.0336 30.63 1.7536 31.08 1.4836C31.48 1.2536 31.9 1.1236 32.26 0.933598C31.52 0.403598 30.25 0.533598 29.37 0.683598C28.8 0.773598 28.28 0.803599 27.7 0.703599C27.54 0.673599 27.23 0.613598 27.23 0.433598C27.94 0.503598 28.57 0.443599 29.01 0.193599C28.51 0.0935986 28.01 0.073599 27.44 0.043599C27.19 0.033599 26.91 -0.0264017 26.7 0.0135983C26.57 0.0335983 26.42 0.153599 26.28 0.203599C25 0.653599 23.7 1.2736 21.86 1.0336C21.16 0.943599 20.56 0.833599 19.87 0.633599C19.89 0.793599 20.06 0.863599 20.17 0.973599C20.42 1.2336 20.69 1.5136 21.05 1.6636C21.16 1.7036 21.35 1.6836 21.38 1.8336C20.87 1.9836 20.22 2.1136 19.71 2.1936C19.55 2.2136 19.39 2.2736 19.24 2.2836C19.11 2.2936 18.98 2.2636 18.85 2.2836C18.27 2.3636 17.66 2.5136 17.05 2.5736C16.64 2.6136 16.25 2.5236 15.82 2.5736C16.26 2.8736 16.86 3.0936 17.5 3.1836C17.62 3.2036 17.82 3.1436 17.85 3.2936C17.65 3.4336 17.39 3.4636 17.15 3.5436C16.87 3.6336 16.6 3.7536 16.32 3.8036C16.02 3.8836 15.72 3.9936 15.4 4.0936C15.15 4.1936 14.89 4.2736 14.63 4.3436C14.39 4.4136 14.15 4.4836 13.91 4.5336C13.53 4.6136 13.13 4.7236 12.76 4.7636C12.58 4.7836 12.43 4.7436 12.29 4.8536C12.94 5.2636 14.02 5.3536 14.83 5.4536C15.1 5.4836 15.4 5.4036 15.61 5.4736C15.75 5.1636 16.05 4.8936 16.24 4.6336C16.3 4.5536 16.38 4.3336 16.53 4.4936C16.44 4.5836 16.49 4.8336 16.53 4.9336C16.45 5.0536 16.32 5.1236 16.22 5.2436C15.9 5.6436 15.77 6.1436 15.56 6.6536C15.49 6.8236 15.37 6.9536 15.37 7.0836C16.2 7.1336 16.83 7.3836 17.62 7.3636C18.04 7.2736 18.44 7.1736 18.82 7.0436C18.88 6.9036 19.07 6.8936 19.18 6.8136C19.26 6.7536 19.31 6.5836 19.43 6.6336C19.56 6.7536 19.4 6.8536 19.34 6.9136C19.12 7.1536 18.87 7.4636 18.81 7.8536C18.74 8.3036 18.84 8.5936 18.89 8.8636C18.9 8.9136 18.87 8.9636 18.88 9.0136C18.92 9.2636 19.07 9.5236 19.07 9.7236C19.07 9.9636 18.96 10.1936 18.89 10.3736C19.12 10.3136 19.3 10.1236 19.57 10.0636C20.11 9.9436 20.77 10.0336 21.31 9.9036C21.46 9.8636 21.57 9.7536 21.73 9.7736C22.06 9.5036 22.33 9.1636 22.7 8.9236C22.7 9.1136 22.55 9.1736 22.48 9.2936C22.23 9.6836 22.12 10.2436 22.15 10.9136C22.17 11.3336 22.36 11.7736 22.37 12.1436C22.39 12.5536 22.23 12.7636 22.16 13.0036C22.3 12.8936 22.48 12.8236 22.62 12.7236C22.92 12.6636 23.25 12.5936 23.6 12.5436C24.6 12.3936 25.56 12.1736 25.72 11.2036C25.82 11.5336 25.92 11.9136 25.78 12.3436C25.72 12.5436 25.56 12.7336 25.51 12.9136C25.44 13.1536 25.49 13.5036 25.53 13.8036C25.56 14.0936 25.65 14.3936 25.64 14.6836C25.62 15.2036 25.54 15.5636 25.41 15.9836C26.01 15.3936 26.98 15.3836 27.69 14.9536C27.81 14.8836 27.97 14.7436 28.11 14.6336C28.37 14.4236 28.63 14.1336 28.73 13.7936C28.78 13.6136 28.71 13.2936 28.9 13.2536C29.09 13.7136 28.86 14.3036 28.67 14.6236C28.36 15.1636 27.76 15.5536 27.22 15.7536C26.9 16.6536 26.85 18.0236 27.04 18.9136C27.08 19.1136 27.08 19.3536 27.22 19.4736C27.36 18.7536 27.64 18.1736 27.91 17.5136C28.12 16.9936 28.43 16.4836 28.77 16.0936C29.5 15.2736 30.35 14.5336 31.56 14.4436C32.02 14.4036 32.43 14.4736 32.79 14.6136C33.26 14.7636 33.74 15.0336 34.04 15.4236C34.05 15.4336 34.07 15.4436 34.08 15.4636C34.1 15.5036 34.12 15.5436 34.14 15.5836C34.16 15.6136 34.18 15.6336 34.19 15.6636C34.19 15.6636 34.19 15.6736 34.2 15.6836C34.33 15.9036 34.48 16.1136 34.45 16.4136C34.76 16.2736 35.23 16.4136 35.57 16.3136C35.78 16.2536 36.09 15.9636 36.12 15.7336C36.13 15.5936 36.03 15.5336 36.11 15.4236C36.46 15.6436 36.5 16.2936 36.29 16.7036C36.18 16.9236 35.95 17.0536 35.93 17.2736C36.14 17.1036 36.38 16.9736 36.64 16.8536C37.42 16.4936 38.18 15.4136 37.89 14.3136C37.61 14.1736 37.32 14.2036 37.05 14.0836C36.92 14.0236 36.8 13.9036 36.67 13.8436C36.52 13.7736 36.38 13.6536 36.25 13.6136C36.16 13.5836 36.05 13.6036 35.96 13.5836C35.86 13.5636 35.73 13.5036 35.63 13.4536C35.14 13.2336 34.75 13.0236 34.28 12.8236C33.24 12.3636 32.22 11.8336 31.28 11.2936C31.09 11.0336 30.82 10.8436 30.59 10.6136C30.55 10.5536 30.51 10.4836 30.47 10.4236C30.39 10.3636 30.32 10.2936 30.26 10.2136C30.23 10.1936 30.2 10.1736 30.16 10.1536C30.08 10.6436 30.25 10.9636 30.39 11.2036C30.43 11.2736 30.44 11.3636 30.47 11.4136C30.54 11.5336 30.76 11.5836 30.71 11.7636C30.56 11.7536 30.45 11.5936 30.31 11.4736C30.19 11.3736 29.99 11.2536 29.92 11.1336C29.87 11.0436 29.87 10.8936 29.81 10.7536C29.73 10.5536 29.6 10.4236 29.63 10.1536C28.97 10.5636 29.08 11.8136 28.96 12.6036C28.77 12.4936 28.85 12.3536 28.85 12.1636C28.85 11.8736 28.71 11.4836 28.57 11.3136C28.53 11.2636 28.46 11.2536 28.45 11.1936C28.44 11.1536 28.5 11.0536 28.46 11.0236C28.49 10.9736 28.58 10.9836 28.61 10.9336C29.27 9.8036 30.11 8.7336 30.97 7.7636C31.39 7.2836 31.93 6.9336 32.58 6.6636C33.03 6.4736 33.53 6.2736 34.09 6.1836C34.24 6.1636 34.52 6.0736 34.62 6.2836C34.31 6.3336 34.01 6.3836 33.81 6.5436C34.81 6.6136 35.53 6.9036 36.36 7.2536C37.02 7.5336 37.7 7.7536 38.35 7.9736C38.79 8.1236 39.19 8.2936 39.69 8.3636C40.79 8.5036 41.51 8.1436 42 7.5036C42.12 7.3436 42.29 6.9736 42.24 6.7536C42.8 6.4536 43.16 5.8336 43.16 4.9736C43.22 4.9236 43.29 5.0136 43.33 4.9436C43.62 4.5536 43.85 4.0736 43.9 3.4136C43.38 3.3936 42.81 3.4936 42.27 3.5036ZM33.99 3.1536C33.37 3.1736 32.61 3.1936 32.1 3.4036C32.72 3.5336 33.26 3.7236 33.8 3.9236C34.01 3.8236 34.15 3.3936 33.99 3.1536ZM35.01 2.4236C35 2.5736 34.92 2.6836 34.96 2.8036C35 2.9336 35.31 3.0936 35.46 3.1336C35.59 3.1636 35.75 3.0836 35.81 3.2236C35.54 3.4136 35.12 3.2836 34.88 3.1736C34.74 3.1136 34.64 3.0136 34.57 3.0236C34.63 3.5136 34.45 3.8436 34.3 4.0736C34.33 4.0936 34.38 4.0936 34.37 4.1536C35.08 3.8636 35.72 3.4736 36.44 3.1736C37.05 2.9136 37.73 2.8436 38.47 2.7036C37.91 2.6036 37.32 2.6536 36.82 2.7036C36.62 2.7236 36.3 2.8036 36.17 2.7636C36.04 2.7336 35.86 2.4336 35.74 2.2836C35.51 2.0036 35.29 1.7836 35.05 1.5236C34.85 1.3036 34.72 1.1436 34.34 1.1636C34.7 1.4636 35.05 1.8336 35.01 2.4236ZM30.13 3.4936C30.75 3.8036 31.42 4.5336 32.11 4.8936C32.26 4.9736 32.46 5.0336 32.61 5.0536C33.05 5.0936 33.22 4.8836 33.5 4.6936C33.66 4.5836 33.84 4.5336 33.94 4.3736C32.79 4.0036 31.62 3.2736 30.13 3.4936ZM35.61 12.0536C35.48 12.0636 35.36 12.0736 35.25 12.1036C35.07 12.2236 34.87 12.3436 34.64 12.4236C34.6 12.4536 34.56 12.4936 34.52 12.5336C34.77 12.7636 35.17 12.8836 35.62 12.8736C35.74 12.6236 35.67 12.2636 35.61 12.0536ZM37.48 8.6336C37.59 8.6436 37.69 8.7436 37.79 8.7436C37.96 8.7436 38.08 8.5936 38.24 8.6136C38.18 8.4536 38.05 8.3436 37.88 8.2736C37.62 8.3336 37.41 8.2136 37.16 8.1236C36.64 7.9336 36.18 7.6936 35.68 7.5236C34.95 7.2836 34.29 6.8836 33.52 6.8936C33.51 6.8936 33.51 6.8936 33.5 6.8936C33.03 6.9236 32.56 7.1536 32.22 7.3036C32.77 7.4136 33.06 7.7636 33.18 8.2836C33.64 8.0736 34.14 7.8136 34.76 7.9936C34.88 8.0236 35.07 8.1436 35.18 8.2236C35.27 8.2836 35.31 8.3736 35.41 8.3836C35.54 8.4036 35.67 8.3136 35.79 8.3036C36.25 8.2736 36.59 8.5436 36.81 8.7536C37.03 8.6836 37.24 8.5936 37.48 8.6336ZM34.31 9.4436C34.32 9.4436 34.33 9.4336 34.33 9.4236C34.35 9.4036 34.36 9.3736 34.38 9.3536C34.39 9.3436 34.39 9.3336 34.4 9.3136C34.44 9.2436 34.48 9.1636 34.53 9.1036C34.57 9.0536 34.62 8.9936 34.66 8.9436C34.73 8.8436 34.79 8.7336 34.83 8.6136C34.64 8.2536 33.78 8.2136 33.51 8.5136C33.63 8.9736 33.92 9.2536 34.31 9.4436ZM32.28 8.9236C32.3 8.8936 32.32 8.8636 32.35 8.8336C32.36 8.8236 32.37 8.8136 32.39 8.8036C32.52 8.6536 32.66 8.5236 32.81 8.3936C32.77 7.8936 32.16 7.5636 31.66 7.8236C31.42 8.3936 31.75 8.9436 32.1 9.1936C32.13 9.1436 32.17 9.0936 32.2 9.0436C32.21 9.0236 32.22 9.0136 32.23 8.9936C32.25 8.9636 32.27 8.9436 32.28 8.9236ZM36.22 9.4036C36.24 9.4036 36.25 9.4036 36.27 9.3936C36.28 9.3836 36.29 9.3736 36.3 9.3536C36.38 9.2336 36.48 9.0936 36.6 8.9836C36.42 8.8136 36.17 8.7136 35.85 8.6836C35.9 8.8236 36.04 9.4036 36.22 9.4036ZM40 9.9236C39.97 10.0536 39.9 10.1636 39.85 10.2736C39.82 10.3336 39.8 10.3936 39.77 10.4436C39.75 10.4836 39.75 10.5336 39.74 10.5736C39.96 10.4836 40.17 10.3236 40.38 10.0936C40.53 9.9236 40.66 9.7136 40.78 9.4736C40.85 9.2936 40.9 9.0936 40.91 8.8736C40.65 8.8836 40.39 8.8736 40.15 8.8936C40.07 9.2536 40.08 9.6136 40 9.9236ZM38.29 9.8036C38.39 9.7636 38.56 9.6736 38.74 9.5636C38.81 9.5236 38.88 9.4636 38.95 9.4036C39.06 9.2136 39.22 9.0436 39.19 8.7636C38.71 8.6836 38.28 8.8336 37.92 8.9536C38.1 9.1636 38.13 9.5136 38.19 9.8336C38.22 9.8236 38.25 9.8236 38.29 9.8036ZM18.38 7.7036C18.37 7.7036 18.37 7.7036 18.36 7.7036C17.94 7.7836 17.37 7.7336 16.8 7.6836C16.49 7.8536 16.2 8.1036 16.02 8.4236C15.88 8.6736 15.75 9.0336 15.72 9.3736C15.7 9.6736 15.75 9.9936 15.75 10.3036C15.75 10.7436 15.64 11.1336 15.51 11.5036C16.15 11.1336 17.18 11.2736 17.84 10.9836C18.03 10.9036 18.49 10.5636 18.57 10.3936C18.72 10.0836 18.65 9.5136 18.57 9.1236C18.5 8.7736 18.38 8.4636 18.37 8.1436C18.37 7.9736 18.44 7.8736 18.38 7.7036ZM8.36 11.4936C8.44 11.3636 8.55 11.2236 8.51 11.1036C8.5 11.1036 8.5 11.1036 8.49 11.1036C8.28 11.2236 8.04 11.2536 7.85 11.3536C7.66 11.4536 7.5 11.6636 7.31 11.7836C7.17 11.8736 7 11.9136 6.87 12.0136C6.24 12.4536 6.03 13.3536 5.61 14.0236C5.55 14.1136 5.47 14.1836 5.41 14.2636C5.36 14.3336 5.28 14.4036 5.29 14.5036C6.02 14.3636 7.02 14.7336 7.67 14.4436C7.77 13.4536 8.08 12.6936 8.61 12.1936C8.24 12.1236 7.95 12.5036 7.71 12.3236C8.03 12.1536 8.17 11.8036 8.36 11.4936ZM6.74 16.7636C6.82 16.6036 7.03 16.4936 7.06 16.3436C6.93 16.3736 6.81 16.4136 6.67 16.4236C6.67 16.3636 6.62 16.3436 6.58 16.3236C7.03 16.0436 7.28 15.5336 7.5 14.9836C6.41 14.9736 4.76 14.5236 4.28 15.4336C4.2 15.1036 4.39 14.7236 4.6 14.5436C3.47 14.8236 3.47 16.3836 3.01 17.4236C3.42 17.3536 3.93 17.4436 4.36 17.4736C5.37 17.5336 6.14 17.2136 6.74 16.7636ZM4.21 14.1636C3.99 14.1036 3.7 14.1036 3.49 14.0336C2.52 14.9136 1.43 15.7536 0 16.0536C0.59 16.6236 1.53 16.8636 2.69 16.9036C2.74 16.6836 2.87 16.4736 2.85 16.2436C3 15.8336 3.09 15.4536 3.29 15.1236C3.53 14.7236 3.88 14.4536 4.21 14.1636ZM6.4 18.1536C6.4 17.9436 6.46 17.6436 6.39 17.5836C5.78 17.9136 4.85 18.0036 3.93 17.8636C3.18 18.1236 3.48 19.3236 3.38 20.1936C3.92 19.8736 4.74 20.0136 5.39 19.8136C5.61 19.7436 5.88 19.6136 6.04 19.5036C6.15 19.4236 6.36 19.2436 6.41 19.1036C6.48 18.8836 6.41 18.5236 6.4 18.1536ZM13.52 20.0836C13.88 19.1436 13.21 18.2336 13.44 17.2536C13.43 17.2536 13.42 17.2536 13.4 17.2536C13.04 17.4936 12.44 17.5536 11.97 17.7136C11.64 17.8236 11.26 17.9836 11.02 18.1636C10.77 18.3536 10.41 18.7936 10.34 19.1536C10.2 19.9236 10.36 20.8836 10.06 21.6636C10.81 21.1736 12.01 21.3536 12.79 20.8836C12.93 20.7936 13.11 20.6436 13.22 20.5236C13.31 20.4236 13.47 20.2436 13.52 20.0836ZM12.85 21.4836C12.85 21.4736 12.85 21.4636 12.83 21.4636C12.73 21.5136 12.61 21.5736 12.49 21.6036C12.05 21.7036 11.46 21.6936 11.03 21.7836C10.68 21.8536 10.49 22.1036 10.24 22.3136C10.05 22.4736 9.85 22.6536 9.75 22.8236C9.25 23.7036 9.98 24.7836 9.59 25.8536C10.12 25.5936 10.92 25.6936 11.5 25.5436C11.84 25.4536 12.09 25.2236 12.31 25.0136C12.51 24.8236 12.78 24.5736 12.83 24.2836C12.98 23.4136 12.43 22.4236 12.85 21.4836ZM9.5 19.5136C8.69 19.7636 7.21 19.7136 6.7 20.2736C6.14 20.8836 6.53 22.0736 6.44 23.0736C6.95 22.8636 7.56 22.9036 8.09 22.7936C8.58 22.6836 9.13 22.4736 9.38 22.1136C9.82 21.4936 9.69 20.3336 9.78 19.3836C9.69 19.4136 9.6 19.4836 9.5 19.5136ZM16.95 23.9736C16.65 24.3336 16.16 24.5036 15.67 24.6336C15.21 24.7536 14.62 24.7336 14.23 24.8836C13.57 25.1436 13.13 25.9436 13.16 26.8036C13.18 27.3136 13.41 27.7636 13.31 28.4036C13.88 28.2436 14.64 28.3836 15.2 28.2136C15.35 28.1636 15.56 28.0536 15.73 27.9536C16.35 27.6036 16.97 26.9636 17 26.1136C17.03 25.4336 16.63 24.6536 16.95 23.9736ZM18.24 11.2836C18.07 11.3236 18.04 11.4136 17.92 11.4536C17.77 11.5036 17.6 11.4836 17.43 11.5036C17.25 11.5336 17.07 11.5536 16.91 11.5736C16.41 11.6236 16.08 11.7536 15.76 11.9536C15.45 12.1436 15.08 12.4336 14.98 12.7736C14.85 13.2136 14.8 13.7136 14.82 14.1536C14.85 14.7036 14.98 15.4536 14.72 15.8936C15.15 15.5736 15.72 15.5136 16.25 15.3736C16.75 15.2436 17.27 14.9736 17.62 14.6836C17.76 14.5636 18.03 14.2136 18.1 14.0236C18.28 13.4936 18.01 12.8136 18.01 12.2336C18.01 11.9036 18.13 11.6136 18.26 11.3136C18.25 11.3036 18.25 11.2836 18.24 11.2836ZM17.32 16.6436C17.31 16.1636 17.47 15.7336 17.56 15.4036C17.56 15.3936 17.56 15.3836 17.54 15.3836C17.53 15.4136 17.51 15.4136 17.5 15.4336C17.25 15.4636 17.04 15.6436 16.82 15.7036C16.38 15.8136 16 15.8036 15.66 15.8736C15.34 15.9436 15.02 16.1236 14.75 16.3236C14.3 16.6536 13.87 17.1936 13.89 17.9936C13.9 18.4036 14.09 18.8136 14.11 19.2536C14.12 19.5736 14.04 19.8436 13.94 20.1336C14.46 19.6936 15.52 19.7936 16.24 19.5036C16.43 19.4336 16.56 19.2936 16.74 19.2236C17.02 18.9236 17.29 18.5236 17.36 17.9636C17.4 17.5436 17.33 17.0936 17.32 16.6436ZM14.53 7.4636C14.93 7.0336 15.09 6.3436 15.42 5.8136C15.39 5.8136 15.38 5.8036 15.37 5.7936C15.2 5.9236 14.78 5.9236 14.49 5.9236C14.26 5.9236 14.05 5.8236 13.84 5.8736C13.62 5.9336 13.3 6.2336 13.17 6.4136C12.88 6.8136 12.58 7.4736 12.52 7.9936C12.49 8.2836 12.52 8.5736 12.47 8.7636C12.44 8.8736 12.32 8.9436 12.33 9.0636C13 8.9636 13.67 9.2536 14.3 9.1536C14.49 9.1236 14.72 9.0636 14.9 8.9936C15.09 8.9136 15.39 8.7636 15.51 8.6036C15.61 8.4736 15.63 8.2936 15.72 8.1536C15.86 7.9336 16.09 7.8236 16.17 7.5836C15.65 7.4936 15.1 7.4936 14.68 7.6236C14.55 7.6636 14.42 7.8236 14.31 7.6836C14.3 7.5636 14.46 7.5336 14.53 7.4636ZM37.1 12.7236C37.06 12.6636 37.02 12.6136 36.96 12.5636C36.96 12.5636 36.95 12.5536 36.94 12.5536C36.87 12.5436 36.8 12.6036 36.73 12.6836C36.71 12.7036 36.69 12.7336 36.67 12.7636C36.54 12.9436 36.43 13.1836 36.34 13.2536C36.48 13.3936 36.69 13.5436 36.96 13.5136C37.1 13.4036 37.18 12.9636 37.1 12.7236ZM11.24 13.6236C11.09 13.6736 10.92 13.6636 10.77 13.7136C10.65 13.7536 10.5 13.9236 10.4 13.7736C10.76 13.3436 11.28 13.0036 11.33 12.1636C11.32 12.1636 11.31 12.1636 11.29 12.1636C11.06 12.2236 10.85 12.3336 10.59 12.3436C10.37 12.3536 10.12 12.3436 9.89 12.3136C9.78 12.2936 9.68 12.2436 9.58 12.2636C9.52 12.2736 9.44 12.3436 9.35 12.3836C9.02 12.5436 8.76 12.7136 8.58 12.9936C8.24 13.5236 8.29 14.2436 8.16 14.9636C8.02 15.2836 7.87 15.5936 7.69 15.8736C8.1 15.8536 8.47 15.9536 8.84 15.9636C9.51 15.9836 10.02 15.6636 10.47 15.3736C10.52 14.6536 10.82 14.1436 11.16 13.7736C11.17 13.7336 11.25 13.6736 11.24 13.6236ZM10.16 18.0536C10.5 17.7036 10.58 16.5636 10.43 16.1136C9.9 16.3536 9.29 16.3836 8.69 16.3536C8.48 16.3436 8.21 16.2736 8.02 16.3036C7.87 16.3236 7.61 16.5136 7.52 16.5836C7.23 16.8236 6.88 17.4136 6.85 17.8936C6.81 18.4436 7.05 18.9736 6.87 19.5036C7.18 19.2636 7.66 19.3536 8.09 19.3136C8.59 19.2636 9.05 19.1436 9.43 18.9236C9.71 18.7536 9.97001 18.5736 10.2 18.3736C10.26 18.3236 10.36 18.2436 10.36 18.1536C10.24 18.1836 10.07 18.2736 9.95 18.2436C9.96 18.1136 10.08 18.1336 10.16 18.0536ZM12.15 7.7236C12.24 6.8436 12.7 6.2736 13.08 5.7736C12.31 6.2336 11.51 6.7136 10.61 7.0436C10 7.2636 9.34 7.3936 8.71 7.6136C9.81 8.0336 11.05 7.9436 12.15 7.7236ZM11.98 8.2736C11.96 8.2736 11.96 8.2536 11.94 8.2536C11.08 8.4036 10.54 8.2236 10.04 8.6736C9.72 8.9736 9.42 9.5036 9.31 10.0036C9.24 10.3336 9.26 10.6936 9.15 11.0436C9.11 11.1636 9.04 11.2836 8.99 11.3936C8.94 11.5136 8.86 11.6236 8.81 11.7436C9.61 11.6136 10.95 12.2336 11.36 11.5836C11.44 11.4636 11.49 11.3036 11.51 11.0936C11.74 10.3536 12.25 9.9236 12.74 9.4636C12.51 9.4536 12.31 9.4036 12.09 9.4136C11.84 9.4336 11.59 9.6536 11.46 9.4636C11.67 9.1236 12.11 8.7836 11.98 8.2736ZM16.4 23.7136C16.51 23.6336 16.66 23.4936 16.73 23.3636C17.03 22.8236 16.68 22.2436 16.54 21.8136C16.36 21.2636 16.24 20.5736 16.51 19.9536C16.51 19.9436 16.51 19.9336 16.49 19.9336C16.49 19.9536 16.47 19.9536 16.45 19.9536C15.8 20.2536 15.03 20.2436 14.44 20.5236C14.03 20.7136 13.54 21.1936 13.37 21.6136C12.94 22.6436 13.55 23.6036 13.42 24.6936C14.11 24.0636 15.62 24.3036 16.4 23.7136ZM18.86 22.5036C19.22 22.3836 19.67 22.2436 19.89 22.0036C20.05 21.8136 20.2 21.2836 20.23 21.0136C20.32 20.2236 19.88 19.4136 20.12 18.5036C20.12 18.4936 20.12 18.4836 20.1 18.4836C19.97 18.5336 19.76 18.6136 19.61 18.6336C18.92 18.7036 18.24 18.6836 17.77 19.0736C17.35 19.4336 16.9 20.1336 16.89 20.9336C16.87 21.8736 17.61 22.3436 17.39 23.3636C17.74 22.9636 18.25 22.7136 18.86 22.5036ZM18.87 26.7136C18.86 26.7136 18.85 26.7136 18.83 26.7136C18.48 26.8336 18.14 26.9336 17.85 27.1036C17.39 27.3636 17.07 27.6036 16.86 28.1036C16.79 28.2636 16.69 28.4236 16.65 28.5636C16.56 28.8936 16.58 29.3936 16.62 29.7236C16.73 30.7736 17.18 31.8936 17.66 32.6136C17.68 32.6336 17.68 32.7336 17.75 32.7136C17.7 31.7336 18 31.0436 18.32 30.3736C18.44 30.1336 18.58 29.8436 18.76 29.6036C18.9 29.4136 19.28 29.0936 19.29 28.9136C19.3 28.8036 19.17 28.5736 19.13 28.4336C18.95 27.8736 18.91 27.3636 18.87 26.7136ZM13.69 16.4336C13.88 16.2636 14.11 16.0236 14.22 15.7536C14.49 15.0836 14.24 14.3036 14.34 13.5236C14.36 13.3536 14.43 13.1736 14.36 13.0736C14.35 13.0736 14.35 13.0736 14.34 13.0736C14.15 13.1736 13.94 13.2536 13.73 13.3336C13.54 13.4036 13.35 13.4936 13.16 13.5336C12.91 13.5936 12.63 13.5636 12.36 13.6136C12 13.6836 11.62 13.9636 11.4 14.2136C11.17 14.4836 11.01 14.8736 10.96 15.2936C10.87 16.0536 11.16 16.9636 10.77 17.7536C11.65 17.1636 12.92 17.1236 13.69 16.4336ZM38.31 12.9036C38.3 12.9136 38.28 12.9336 38.27 12.9436C38.06 13.1436 37.81 13.2936 37.49 13.3736C37.2 13.7736 37.71 14.0236 38.17 14.0136C38.67 13.5236 39.09 12.9236 39.19 11.9736C39.11 11.9836 39.04 12.0236 38.97 12.0836C38.76 12.3736 38.56 12.6636 38.31 12.9036ZM20.8 14.2336C20.28 14.4436 19.68 14.3436 19.25 14.5036C18.36 14.8136 17.82 15.5236 17.79 16.7136C17.78 17.2836 17.99 17.8836 17.76 18.4936C18.04 18.3536 18.31 18.1936 18.69 18.1436C19.18 18.0736 19.85 18.1036 20.17 17.8736C20.3 17.7836 20.43 17.5836 20.54 17.4336C20.67 17.2736 20.79 17.1136 20.88 16.9336C21.06 16.5536 21.2 16.0036 21.17 15.5236C21.14 15.0736 21.04 14.4736 21.22 14.0236C21.07 14.0736 20.94 14.1736 20.8 14.2336ZM21.63 10.3036C20.99 10.5236 20.06 10.3336 19.53 10.6236C19.39 10.7036 19.16 10.8936 19.03 11.0336C18.91 11.1536 18.85 11.3036 18.77 11.4736C18.71 11.6136 18.6 11.7536 18.57 11.8636C18.34 12.6036 18.76 13.6136 18.41 14.4536C19.04 13.8436 20.3 14.0436 21.03 13.6636C21.56 13.3836 21.97 12.7936 21.91 11.9036C21.87 11.3936 21.6 10.9136 21.63 10.3036ZM23.53 20.6036C23.92 20.2736 24.28 19.8636 24.32 19.1436C23.69 19.2136 23.27 19.5336 22.91 19.8736C22.82 19.9536 22.76 20.1636 22.6 20.1036C22.5 19.8936 22.7 19.7436 22.75 19.6036C23.08 18.7636 22.68 17.8136 22.84 16.9136C22.4 16.9136 21.97 17.0336 21.65 17.2136C21.46 17.3236 21.12 17.6036 20.99 17.7536C20.74 18.0536 20.6 18.5536 20.56 18.9636C20.47 19.8736 20.9 20.8136 20.6 21.6636C21.06 21.2436 21.87 21.2936 22.54 21.1136C22.92 21.0036 23.26 20.8336 23.53 20.6036ZM19.57 26.4436C19.42 27.7436 19.87 28.6236 20.31 29.4336C20.35 27.6236 21.05 26.5436 21.77 25.5036C21.69 25.3336 21.66 25.1236 21.57 24.9636C21.07 25.6536 20.4 26.1336 19.57 26.4436ZM21.43 21.8536C21.1 21.9636 20.7 22.0836 20.39 22.2736C20.26 22.3536 20.16 22.5036 20.02 22.5936C19.72 22.8036 19.33 22.9836 18.99 23.1136C18.66 23.2436 18.18 23.3636 17.93 23.5936C17.68 23.8136 17.52 24.2336 17.48 24.5736C17.39 25.2436 17.83 25.9236 17.58 26.5736C18.01 26.2936 18.54 26.1636 19.05 26.0136C19.55 25.8736 20.04 25.6636 20.42 25.3736C20.76 25.1236 21.33 24.5136 21.4 23.9936C21.43 23.7136 21.35 23.3236 21.37 22.9536C21.39 22.5936 21.44 22.1636 21.46 21.8536C21.45 21.8536 21.45 21.8436 21.43 21.8536ZM26.46 18.0636C26.06 18.4736 25.58 18.7836 24.99 18.9636C24.9 19.4536 24.72 19.9436 24.7 20.4736C24.66 21.2536 25 21.9836 25.2 22.5636C25.23 21.2036 25.59 20.3336 26.14 19.5736C26.23 19.4436 26.53 19.0836 26.56 18.9636C26.58 18.8836 26.53 18.7436 26.52 18.6036C26.5 18.3836 26.53 18.1436 26.46 18.0636ZM22.11 21.7536C21.82 23.3836 22.08 25.0236 22.64 26.1436C22.72 24.1936 23.46 22.8236 24.35 21.7136C24.24 21.4236 24.25 21.0336 24.15 20.7336C23.57 21.1836 22.98 21.6236 22.11 21.7536ZM25.3 16.8536C25.28 16.9636 25.38 17.0636 25.27 17.1336C25.01 16.9436 25.03 16.4836 24.94 16.1336C24.55 16.4236 24.17 16.7136 23.59 16.7936C23.09 17.2736 23.47 18.1436 23.44 18.8536C24.37 18.4636 25.48 18.4836 26.09 17.7436C26.44 17.3236 26.56 16.7036 26.67 15.9736C26.66 15.9736 26.65 15.9736 26.63 15.9736C26.2 16.0736 25.38 16.4536 25.3 16.8536ZM15.28 9.3236C14.97 9.4736 14.38 9.6436 13.96 9.6436C13.8 9.6436 13.63 9.5736 13.44 9.6036C13.25 9.6336 13.09 9.8236 12.96 9.9236C12.82 10.0436 12.62 10.1436 12.52 10.2836C12.45 10.3736 12.39 10.5236 12.32 10.6536C12.25 10.7736 12.17 10.9136 12.12 11.0436C11.86 11.6936 11.89 12.6236 11.52 13.1236C11.87 13.0336 12.31 13.1536 12.71 13.1236C12.96 13.1036 13.19 12.9336 13.38 13.0236C13.73 12.8936 14.06 12.7136 14.37 12.4636C14.59 12.2836 15.01 11.8936 15.11 11.6236C15.15 11.5236 15.14 11.4036 15.16 11.2836C15.19 11.1436 15.27 11.0236 15.29 10.8936C15.36 10.4136 15.23 9.8836 15.29 9.3536C15.3 9.3236 15.29 9.3136 15.28 9.3236Z" fill="white"/>
</svg>
